<svg width="34" height="34" viewBox="0 0 34 34" fill="none" xmlns="http://www.w3.org/2000/svg">
<path d="M8.87222 1.86527C10.3044 0.780655 12.0527 0.195661 13.8492 0.199975C14.3532 0.199975 14.7543 0.462475 14.9874 0.643075C15.2478 0.848875 15.4914 1.11137 15.7098 1.37387C15.8647 1.56196 15.9493 1.79804 15.9492 2.04168V9.64998H13.6707C13.423 8.9494 12.9356 8.35894 12.2947 7.98296C11.6538 7.60698 10.9006 7.46969 10.1682 7.59534C9.43583 7.72099 8.77146 8.10151 8.29251 8.66963C7.81356 9.23776 7.55087 9.9569 7.55087 10.7C7.55087 11.443 7.81356 12.1622 8.29251 12.7303C8.77146 13.2984 9.43583 13.679 10.1682 13.8046C10.9006 13.9303 11.6538 13.793 12.2947 13.417C12.9356 13.041 13.423 12.4506 13.6707 11.75H15.9492V31.5215C15.9493 31.6769 15.9149 31.8305 15.8484 31.971C15.782 32.1116 15.6851 32.2356 15.5649 32.3342C14.5947 33.128 13.2969 33.8 11.7492 33.8C9.25862 33.8 7.40432 32.5442 6.20522 31.0427C5.34371 29.9729 4.75365 28.7106 4.48532 27.3635C3.66943 27.1459 2.91294 26.7476 2.27192 26.198C1.11272 25.2047 0.199219 23.594 0.199219 21.2C0.199219 20.0303 0.276919 18.974 0.451218 18.05H7.02422C8.35982 18.05 9.46022 19.0475 9.62822 20.3369C8.92986 20.5896 8.34325 21.081 7.97199 21.7242C7.60072 22.3674 7.46867 23.1212 7.59915 23.8523C7.72963 24.5834 8.11426 25.2449 8.6851 25.72C9.25595 26.1951 9.97631 26.4533 10.719 26.4488C11.4617 26.4444 12.1789 26.1777 12.744 25.6958C13.3091 25.2139 13.6858 24.5478 13.8076 23.8152C13.9293 23.0826 13.7882 22.3305 13.4093 21.6917C13.0304 21.053 12.438 20.5686 11.7366 20.3243C11.6481 19.1351 11.1132 18.0233 10.2392 17.212C9.36518 16.4007 8.21673 15.9499 7.02422 15.95H1.12532C1.44662 15.3242 1.87712 14.795 2.43782 14.4191C2.57965 14.3252 2.72849 14.2423 2.88302 14.1713C2.28662 12.4241 2.44202 10.3787 3.01742 8.77218C3.38492 7.73898 3.96872 6.76248 4.77092 6.11147C5.30012 5.68098 5.93012 5.39747 6.61892 5.34288C6.92132 3.90857 7.77182 2.72207 8.87432 1.86527H8.87222ZM18.0492 26.45H19.6242C20.8774 26.45 22.0792 25.9522 22.9653 25.0661C23.8514 24.1799 24.3492 22.9781 24.3492 21.725V17.8715C25.0498 17.6238 25.6402 17.1364 26.0162 16.4955C26.3922 15.8545 26.5295 15.1013 26.4039 14.369C26.2782 13.6366 25.8977 12.9722 25.3296 12.4933C24.7614 12.0143 24.0423 11.7516 23.2992 11.7516C22.5561 11.7516 21.837 12.0143 21.2689 12.4933C20.7008 12.9722 20.3202 13.6366 20.1946 14.369C20.0689 15.1013 20.2062 15.8545 20.5822 16.4955C20.9582 17.1364 21.5486 17.6238 22.2492 17.8715V21.725C22.2492 23.174 21.0732 24.35 19.6242 24.35H18.0492V2.04168C18.0491 1.79804 18.1338 1.56196 18.2886 1.37387C18.5049 1.11137 18.7506 0.848875 19.011 0.643075C19.242 0.462475 19.6431 0.199975 20.1492 0.199975C21.9457 0.195661 23.6941 0.780655 25.1262 1.86527C26.2287 2.72207 27.0792 3.90857 27.3795 5.34288C28.0683 5.39537 28.6983 5.68098 29.2275 6.11147C30.0297 6.76248 30.6135 7.73898 30.981 8.77218C31.5564 10.3787 31.7118 12.4262 31.1154 14.1692C31.2666 14.2406 31.4157 14.3246 31.5606 14.4212C32.1381 14.8055 32.577 15.3557 32.9004 16.0046C33.5367 17.2751 33.7992 19.0475 33.7992 21.2C33.7992 23.5961 32.8857 25.2047 31.7265 26.198C31.0855 26.7476 30.329 27.1459 29.5131 27.3635C29.3031 28.5353 28.7151 29.8919 27.7932 31.0427C26.5962 32.5442 24.7398 33.8 22.2492 33.8C20.7036 33.8 19.4037 33.128 18.4356 32.3342C18.315 32.2358 18.2178 32.1119 18.1509 31.9713C18.0841 31.8308 18.0494 31.6771 18.0492 31.5215V26.45ZM10.6992 9.64998C10.4207 9.64998 10.1537 9.7606 9.95676 9.95751C9.75984 10.1544 9.64922 10.4215 9.64922 10.7C9.64922 10.9785 9.75984 11.2455 9.95676 11.4424C10.1537 11.6394 10.4207 11.75 10.6992 11.75C10.9777 11.75 11.2448 11.6394 11.4417 11.4424C11.6386 11.2455 11.7492 10.9785 11.7492 10.7C11.7492 10.4215 11.6386 10.1544 11.4417 9.95751C11.2448 9.7606 10.9777 9.64998 10.6992 9.64998ZM10.6992 22.25C10.4207 22.25 10.1537 22.3606 9.95676 22.5575C9.75984 22.7544 9.64922 23.0215 9.64922 23.3C9.64922 23.5785 9.75984 23.8455 9.95676 24.0424C10.1537 24.2394 10.4207 24.35 10.6992 24.35C10.9777 24.35 11.2448 24.2394 11.4417 24.0424C11.6386 23.8455 11.7492 23.5785 11.7492 23.3C11.7492 23.0215 11.6386 22.7544 11.4417 22.5575C11.2448 22.3606 10.9777 22.25 10.6992 22.25ZM23.2992 15.95C23.5777 15.95 23.8448 15.8394 24.0417 15.6424C24.2386 15.4455 24.3492 15.1785 24.3492 14.9C24.3492 14.6215 24.2386 14.3544 24.0417 14.1575C23.8448 13.9606 23.5777 13.85 23.2992 13.85C23.0207 13.85 22.7537 13.9606 22.5568 14.1575C22.3598 14.3544 22.2492 14.6215 22.2492 14.9C22.2492 15.1785 22.3598 15.4455 22.5568 15.6424C22.7537 15.8394 23.0207 15.95 23.2992 15.95Z" fill="#185CFF"/>
</svg>
